<svg xmlns="http://www.w3.org/2000/svg" fill="none" viewBox="0 0 398 208" height="208" width="398">
<path fill="#1998D5" d="M44.5 205.6C44.3 205.6 41.4 205.4 40 202.1C38.8 199.4 10 134.7 9.8 134.1C9.8 133.9 9.4 133.1 10 132C10.4 131.4 11.2 131 12.3 131H24.4C26.7 131 27.9 132.4 28.3 133.3L50.7 184.7L73.1 133.3C73.5 132.5 74.7 131 77 131H89.1C90.1 131 90.9 131.4 91.4 132C92 132.8 91.6 133.8 91.6 134.1L87.3 144C84.4 150.6 62.4 199.9 61.4 202.1C60.2 204.8 58.1 205.6 57.1 205.6H44.5ZM168.7 88C163.8 93.5 155.6 96.8 146.7 96.8C126.4 96.8 123.3 82.2 123.3 73.4C123.3 64.6 126.4 50 146.7 50C156.8 50 165.2 54.5 168.7 58.6V88ZM196 98C195.6 98 195 98.2 194.8 98.2C193.8 98.4 192.7 98.6 191.5 98.6C187.6 98.6 185.8 97.8 185.8 93.3V38.9C185.8 37.7 184.8 36.4 183.1 36.4C182.7 36.4 182.1 36.4 181.5 36.8C180.1 37.4 172.3 40.7 170 41.5C164.3 38 154.4 34.3 145.8 34.3C121.4 34.3 106.4 49.3 106.4 73.3C106.4 97.3 121.6 112.3 145.8 112.3C154 112.3 163.3 109.6 169.6 105.3C171.9 109.6 177.2 112.3 184 112.3C188.1 112.3 192.2 111.5 196.1 110C196.7 109.8 197.7 108.8 197.7 107.7V100.3C197.9 98.8 196.8 98 196 98ZM31.4 70.7L50.9 18.7L70.4 70.7H31.4ZM101.7 105.8L62.7 2.1C62.5 1.7 61.5 0 57.6 0H44.6C40.7 0 39.7 1.8 39.5 2.3C39.1 3.3 1.5 103 0.3 106C-0.1 107.4 -0.1 108.5 0.3 109.3C0.7 110.1 1.7 110.5 2.8 110.5H13.5C14.9 110.5 16.8 109.7 17.8 107C18.6 104.5 23.8 91 25.2 87.5H77L84.2 106.8C84.6 108.2 86 110.5 88.7 110.5H100C101.4 110.5 102.1 109.9 102.3 109.3C103 108.1 102.1 106.3 101.7 105.8ZM157.3 183.2C152.4 188.7 144.2 192 135.3 192C115 192 111.9 177.4 111.9 168.6C111.9 159.8 115 145.2 135.3 145.2C145.4 145.2 153.8 149.7 157.3 153.8V183.2ZM184.4 193.3C184 193.3 183.4 193.5 183.2 193.5C182.2 193.7 181.1 193.9 179.9 193.9C176 193.9 174.2 193.1 174.2 188.6V134.2C174.2 133 173.2 131.7 171.5 131.7C171.1 131.7 170.5 131.7 169.9 132.1C168.5 132.7 160.7 136 158.4 136.8C152.7 133.3 142.8 129.6 134.2 129.6C109.8 129.6 94.8 144.6 94.8 168.6C94.8 192.6 110 207.6 134.2 207.6C142.4 207.6 151.7 204.9 158 200.6C160.3 204.9 165.6 207.6 172.4 207.6C176.5 207.6 180.6 206.8 184.5 205.3C185.1 205.1 186.1 204.1 186.1 203V195.6C186.4 194.1 185.4 193.3 184.4 193.3Z" clip-rule="evenodd" fill-rule="evenodd"></path>
<path fill="#1998D5" d="M352.149 134.575C343.937 137.324 327.902 135.229 312.989 105.852C306.968 93.9914 300.341 84.7759 292.985 78.4559C288.68 79.9401 284.467 81.8181 280.397 84.0953C287.587 88.4075 294.985 96.8959 302.289 111.284C333.688 173.135 383.202 145.635 380.789 104.247C380.075 103.328 379.32 102.423 378.526 101.534C374.595 97.1343 370.307 93.2535 365.748 89.9006C366.942 93.5911 367.85 97.4388 368.443 101.421C371.009 118.628 361.943 131.297 352.149 134.575Z"></path>
<path fill="white" d="M312.989 105.852C327.902 135.229 343.937 137.324 352.149 134.575C361.943 131.297 371.009 118.628 368.443 101.421C367.85 97.4388 366.942 93.5911 365.748 89.9006C344.447 74.2333 317.242 70.0945 292.985 78.4559C300.341 84.7759 306.968 93.9914 312.989 105.852ZM331.167 98.1338C331.961 103.457 336.92 107.129 342.243 106.335C347.566 105.541 351.237 100.583 350.444 95.2598C349.65 89.9367 344.692 86.2649 339.369 87.0586C334.046 87.8522 330.374 92.8108 331.167 98.1338Z" clip-rule="evenodd" fill-rule="evenodd"></path>
<path fill="#1998D5" d="M342.243 106.335C336.92 107.129 331.961 103.457 331.167 98.1338C330.374 92.8108 334.046 87.8522 339.369 87.0586C344.692 86.2649 349.65 89.9367 350.444 95.2598C351.237 100.583 347.566 105.541 342.243 106.335Z"></path>
<path fill="#1998D5" d="M380.312 99.651C373.774 55.7995 334.302 25.3456 290.451 31.8837C254.634 37.2238 227.892 65.4532 222.857 99.5126C221.728 107.153 221.691 115.087 222.889 123.122C222.889 123.122 227.219 113.876 234.384 103.994C245.071 89.2549 262.063 73.101 280.397 84.0953C284.467 81.8181 288.68 79.9401 292.985 78.4559C287.927 74.11 282.524 71.1333 276.736 69.6073C263.276 66.0589 251.477 71.2695 242.772 77.8162C252.759 60.0853 270.534 46.9858 292.22 43.7525C325.323 38.817 355.682 58.7703 365.748 89.9006C370.307 93.2535 374.595 97.1343 378.526 101.534C379.32 102.423 380.075 103.328 380.789 104.247C380.701 102.732 380.543 101.199 380.312 99.651Z"></path>
<path fill="#1998D5" d="M266.213 94.2333C270.668 90.252 275.426 86.876 280.397 84.0953C287.587 88.4075 294.985 96.8959 302.289 111.284C333.688 173.135 383.202 145.635 380.789 104.247C406.644 137.499 380.429 188.85 319.702 154.095C269.991 125.645 260.114 159.966 258.946 185.285C258.383 197.479 259.84 207.584 259.84 207.584C254.427 201.527 250.102 194.875 246.851 187.869C232.358 156.638 239.21 118.362 266.213 94.2333Z" clip-rule="evenodd" fill-rule="evenodd"></path>
<path fill="white" d="M242.772 77.8162C251.477 71.2695 263.276 66.0589 276.736 69.6073C282.524 71.1333 287.927 74.11 292.985 78.4559C317.242 70.0945 344.447 74.2333 365.748 89.9006C355.682 58.7703 325.323 38.817 292.22 43.7525C270.534 46.9858 252.759 60.0853 242.772 77.8162Z"></path>
</svg>
