<svg xmlns="http://www.w3.org/2000/svg" fill="none" viewBox="0 0 400 400" height="400" width="400">
<path fill="#1998D5" d="M45.5 301.6C45.3 301.6 42.4 301.4 41 298.1C39.8 295.4 11 230.7 10.8 230.1C10.8 229.9 10.4 229.1 11 228C11.4 227.4 12.2 227 13.3 227H25.4C27.7 227 28.9 228.4 29.3 229.3L51.7 280.7L74.1 229.3C74.5 228.5 75.7 227 78 227H90.1C91.1 227 91.9 227.4 92.4 228C93 228.8 92.6 229.8 92.6 230.1L88.3 240C85.4 246.6 63.4 295.9 62.4 298.1C61.2 300.8 59.1 301.6 58.1 301.6H45.5ZM169.7 184C164.8 189.5 156.6 192.8 147.7 192.8C127.4 192.8 124.3 178.2 124.3 169.4C124.3 160.6 127.4 146 147.7 146C157.8 146 166.2 150.5 169.7 154.6V184ZM197 194C196.6 194 196 194.2 195.8 194.2C194.8 194.4 193.7 194.6 192.5 194.6C188.6 194.6 186.8 193.8 186.8 189.3V134.9C186.8 133.7 185.8 132.4 184.1 132.4C183.7 132.4 183.1 132.4 182.5 132.8C181.1 133.4 173.3 136.7 171 137.5C165.3 134 155.4 130.3 146.8 130.3C122.4 130.3 107.4 145.3 107.4 169.3C107.4 193.3 122.6 208.3 146.8 208.3C155 208.3 164.3 205.6 170.6 201.3C172.9 205.6 178.2 208.3 185 208.3C189.1 208.3 193.2 207.5 197.1 206C197.7 205.8 198.7 204.8 198.7 203.7V196.3C198.9 194.8 197.8 194 197 194ZM32.4 166.7L51.9 114.7L71.4 166.7H32.4ZM102.7 201.8L63.7 98.1C63.5 97.7 62.5 96 58.6 96H45.6C41.7 96 40.7 97.8 40.5 98.3C40.1 99.3 2.5 199 1.3 202C0.9 203.4 0.9 204.5 1.3 205.3C1.7 206.1 2.7 206.5 3.8 206.5H14.5C15.9 206.5 17.8 205.7 18.8 203C19.6 200.5 24.8 187 26.2 183.5H78L85.2 202.8C85.6 204.2 87 206.5 89.7 206.5H101C102.4 206.5 103.1 205.9 103.3 205.3C104 204.1 103.1 202.3 102.7 201.8ZM158.3 279.2C153.4 284.7 145.2 288 136.3 288C116 288 112.9 273.4 112.9 264.6C112.9 255.8 116 241.2 136.3 241.2C146.4 241.2 154.8 245.7 158.3 249.8V279.2ZM185.4 289.3C185 289.3 184.4 289.5 184.2 289.5C183.2 289.7 182.1 289.9 180.9 289.9C177 289.9 175.2 289.1 175.2 284.6V230.2C175.2 229 174.2 227.7 172.5 227.7C172.1 227.7 171.5 227.7 170.9 228.1C169.5 228.7 161.7 232 159.4 232.8C153.7 229.3 143.8 225.6 135.2 225.6C110.8 225.6 95.8 240.6 95.8 264.6C95.8 288.6 111 303.6 135.2 303.6C143.4 303.6 152.7 300.9 159 296.6C161.3 300.9 166.6 303.6 173.4 303.6C177.5 303.6 181.6 302.8 185.5 301.3C186.1 301.1 187.1 300.1 187.1 299V291.6C187.4 290.1 186.4 289.3 185.4 289.3Z" clip-rule="evenodd" fill-rule="evenodd"></path>
<path fill="#1998D5" d="M353.149 230.575C344.937 233.324 328.902 231.229 313.989 201.852C307.968 189.991 301.341 180.776 293.985 174.456C289.68 175.94 285.467 177.818 281.397 180.095C288.587 184.407 295.985 192.896 303.289 207.284C334.688 269.135 384.202 241.635 381.789 200.247C381.075 199.328 380.32 198.423 379.526 197.534C375.595 193.134 371.307 189.253 366.748 185.901C367.942 189.591 368.85 193.439 369.443 197.421C372.009 214.628 362.943 227.297 353.149 230.575Z"></path>
<path fill="white" d="M313.989 201.852C328.902 231.229 344.937 233.324 353.149 230.575C362.943 227.297 372.009 214.628 369.443 197.421C368.85 193.439 367.942 189.591 366.748 185.901C345.447 170.233 318.242 166.095 293.985 174.456C301.341 180.776 307.968 189.991 313.989 201.852ZM332.167 194.134C332.961 199.457 337.92 203.129 343.243 202.335C348.566 201.541 352.237 196.583 351.444 191.26C350.65 185.937 345.692 182.265 340.369 183.059C335.046 183.852 331.374 188.811 332.167 194.134Z" clip-rule="evenodd" fill-rule="evenodd"></path>
<path fill="#1998D5" d="M343.243 202.335C337.92 203.129 332.961 199.457 332.167 194.134C331.374 188.811 335.046 183.852 340.369 183.059C345.692 182.265 350.65 185.937 351.444 191.26C352.237 196.583 348.566 201.541 343.243 202.335Z"></path>
<path fill="#1998D5" d="M381.312 195.651C374.774 151.799 335.302 121.346 291.451 127.884C255.634 133.224 228.892 161.453 223.857 195.513C222.728 203.153 222.691 211.087 223.889 219.122C223.889 219.122 228.219 209.876 235.384 199.994C246.071 185.255 263.063 169.101 281.397 180.095C285.467 177.818 289.68 175.94 293.985 174.456C288.927 170.11 283.524 167.133 277.736 165.607C264.276 162.059 252.477 167.27 243.772 173.816C253.759 156.085 271.534 142.986 293.22 139.752C326.323 134.817 356.682 154.77 366.748 185.901C371.307 189.253 375.595 193.134 379.526 197.534C380.32 198.423 381.075 199.328 381.789 200.247C381.701 198.732 381.543 197.199 381.312 195.651Z"></path>
<path fill="#1998D5" d="M267.213 190.233C271.668 186.252 276.426 182.876 281.397 180.095C288.587 184.407 295.985 192.896 303.289 207.284C334.688 269.135 384.202 241.635 381.789 200.247C407.644 233.499 381.429 284.85 320.702 250.095C270.991 221.645 261.114 255.966 259.946 281.285C259.383 293.479 260.84 303.584 260.84 303.584C255.427 297.527 251.102 290.875 247.851 283.869C233.358 252.638 240.21 214.362 267.213 190.233Z" clip-rule="evenodd" fill-rule="evenodd"></path>
<path fill="white" d="M243.772 173.816C252.477 167.27 264.276 162.059 277.736 165.607C283.524 167.133 288.927 170.11 293.985 174.456C318.242 166.095 345.447 170.233 366.748 185.901C356.682 154.77 326.323 134.817 293.22 139.752C271.534 142.986 253.759 156.085 243.772 173.816Z"></path>
</svg>
